<?xml version="1.0" encoding="UTF-8"?>
<svg xmlns="http://www.w3.org/2000/svg" version="1.1" viewBox="0 0 566.9 146.4">
  <defs>
    <style>
      .cls-1 {
        fill: #fff;
      }
    </style>
  </defs>
  <!-- Generator: Adobe Illustrator 28.6.0, SVG Export Plug-In . SVG Version: 1.2.0 Build 709)  -->
  <g>
    <g id="Layer_1">
      <g id="DurinDrilling_LogoandName-logo">
        <path class="cls-1" d="M75.4,0v7.3c10.4.3,20.2,3.1,28.8,7.7l3.7-6.3C98.2,3.5,87.1.3,75.4,0ZM139.1,75.4c-.3,10.4-3.1,20.2-7.7,28.8l6.3,3.7c5.2-9.7,8.3-20.8,8.7-32.5h-7.3ZM104.2,131.4c-8.6,4.6-18.4,7.4-28.8,7.7v7.3c11.7-.3,22.8-3.5,32.5-8.7l-3.7-6.3h0ZM17.2,108l-6.3,3.7c6,9.7,14.1,17.8,23.8,23.8l3.7-6.3c-8.5-5.3-15.8-12.6-21.1-21.1h0ZM7.3,75.4H0c.3,11.7,3.5,22.8,8.7,32.5l6.3-3.7c-4.6-8.6-7.4-18.4-7.7-28.8ZM34.7,10.9c-9.7,6-17.8,14.1-23.8,23.8l6.3,3.7c5.3-8.5,12.6-15.8,21.1-21.1,0,0-3.7-6.3-3.7-6.3ZM8.7,38.5C3.5,48.2.3,59.3,0,71h7.3c.3-10.4,3.1-20.2,7.7-28.8l-6.3-3.7h0ZM42.2,131.4l-3.7,6.3c9.7,5.2,20.8,8.3,32.5,8.7v-7.3c-10.4-.3-20.2-3.1-28.8-7.7h0ZM129.2,108c-5.3,8.5-12.6,15.8-21.1,21.1l3.7,6.3c9.7-6,17.8-14.1,23.8-23.8,0,0-6.3-3.7-6.3-3.7ZM137.7,38.5l-6.3,3.7c4.6,8.6,7.4,18.4,7.7,28.8h7.3c-.4-11.7-3.5-22.8-8.7-32.5ZM111.7,10.9l-3.7,6.3c8.5,5.3,15.8,12.6,21.1,21.1l6.3-3.7c-6-9.7-14.1-17.8-23.8-23.8ZM38.5,8.7l3.7,6.3c8.6-4.6,18.4-7.4,28.8-7.7V0c-11.7.3-22.8,3.5-32.5,8.7Z"/>
        <path class="cls-1" d="M75.4,12.8v7.6c8,.3,15.6,2.5,22.3,6l3.8-6.5c-7.8-4.2-16.7-6.6-26.1-7ZM126,75.4c-.3,8-2.4,15.6-6,22.3l6.5,3.8c4.2-7.8,6.6-16.7,7-26.1,0,0-7.6,0-7.6,0ZM97.7,120.1c-6.7,3.5-14.3,5.6-22.3,6v7.6c9.4-.3,18.3-2.8,26.1-7l-3.8-6.5ZM28.6,101.5l-6.5,3.8c4.8,7.7,11.4,14.3,19.1,19.1l3.8-6.5c-6.6-4.2-12.2-9.8-16.3-16.3h0ZM20.4,75.4h-7.6c.3,9.4,2.8,18.3,7,26.1l6.5-3.8c-3.5-6.7-5.6-14.3-6-22.3ZM41.1,22c-7.7,4.8-14.3,11.4-19.1,19.1l6.5,3.8c4.2-6.6,9.8-12.2,16.3-16.3l-3.8-6.5h0ZM19.8,44.9c-4.2,7.8-6.6,16.7-7,26.1h7.6c.3-8,2.5-15.6,6-22.3,0,0-6.5-3.8-6.5-3.8ZM48.7,120.1l-3.8,6.5c7.8,4.2,16.7,6.7,26.1,7v-7.6c-8-.3-15.6-2.5-22.3-6ZM117.9,101.5c-4.2,6.6-9.8,12.2-16.3,16.3l3.8,6.5c7.7-4.8,14.3-11.4,19.1-19.1l-6.5-3.8h0ZM126.6,44.9l-6.5,3.8c3.5,6.7,5.6,14.3,6,22.3h7.6c-.3-9.4-2.8-18.3-7-26.1ZM105.3,22l-3.8,6.5c6.6,4.2,12.2,9.8,16.3,16.3l6.5-3.8c-4.8-7.7-11.4-14.3-19.1-19.1h0ZM44.9,19.8l3.8,6.5c6.7-3.5,14.3-5.6,22.3-6v-7.6c-9.4.3-18.3,2.8-26.1,7Z"/>
        <path class="cls-1" d="M75.4,25.6v7.9c5.6.3,10.9,1.8,15.7,4.2l4-6.9c-5.9-3.1-12.6-5-19.7-5.3ZM112.8,75.4c-.3,5.6-1.8,10.9-4.2,15.7l6.9,4c3.1-5.9,4.9-12.6,5.3-19.7h-7.9,0ZM91.1,108.6c-4.8,2.4-10.1,3.9-15.7,4.2v7.9c7.1-.3,13.7-2.2,19.7-5.3l-4-6.9ZM40,94.9l-6.9,4c3.7,5.8,8.6,10.7,14.4,14.4l4-6.9c-4.6-3-8.5-6.9-11.5-11.5ZM33.6,75.4h-7.9c.3,7.1,2.2,13.7,5.3,19.7l6.9-4c-2.4-4.8-3.9-10.1-4.2-15.7ZM47.5,33.1c-5.8,3.7-10.7,8.6-14.4,14.4l6.9,4c3-4.6,6.9-8.5,11.5-11.5,0,0-4-6.9-4-6.9ZM30.9,51.3c-3.1,5.9-4.9,12.6-5.3,19.7h7.9c.3-5.6,1.8-10.9,4.2-15.7,0,0-6.9-4-6.9-4ZM55.3,108.6l-4,6.9c5.9,3.1,12.6,5,19.7,5.3v-7.9c-5.6-.3-10.9-1.8-15.7-4.2ZM106.4,94.9c-3,4.6-6.9,8.5-11.5,11.5l4,6.9c5.8-3.7,10.7-8.6,14.4-14.4,0,0-6.9-4-6.9-4ZM115.5,51.3l-6.9,4c2.4,4.8,3.9,10.1,4.2,15.7h7.9c-.3-7.1-2.2-13.7-5.3-19.7h0ZM98.9,33.1l-4,6.9c4.6,3,8.5,6.9,11.5,11.5l6.9-4c-3.7-5.8-8.6-10.7-14.4-14.4ZM51.3,30.9l4,6.9c4.8-2.4,10.1-3.9,15.7-4.2v-7.9c-7.1.3-13.7,2.2-19.7,5.3Z"/>
        <path class="cls-1" d="M183.4,110.2V36.3h42.6c12.6-.1,22.3,3,29.3,9.3,6.9,6.3,10.4,15.5,10.4,27.6s-3.5,21.3-10.4,27.6c-6.9,6.3-16.7,9.4-29.3,9.4h-42.6ZM224.9,49.6h-26v47.2h26c8.2,0,14.4-1.9,18.6-5.7,4.2-3.8,6.3-9.8,6.3-17.9s-2.1-14.2-6.3-17.9c-4.2-3.8-10.4-5.6-18.6-5.6Z"/>
        <path class="cls-1" d="M302.3,110.7c-7.1,0-12.6-1-16.7-2.9-4.1-2-7-4.9-8.8-8.9-1.8-4-2.6-9-2.6-15.1v-47.5h15.6v47.5c0,5.2,1.2,8.8,3.5,10.7,2.3,1.9,6.2,2.8,11.7,2.8h18.8c5.5,0,9.4-.9,11.7-2.8,2.3-1.9,3.5-5.5,3.5-10.7v-47.5h15.6v47.5c0,6.1-.9,11.1-2.6,15.1-1.8,4-4.7,7-8.8,8.9-4.1,2-9.7,2.9-16.7,2.9h-24Z"/>
        <path class="cls-1" d="M366.9,110.2V36.3h58.3c7.2,0,12.8,1.9,16.8,5.8,4,3.9,6,9.7,6,17.6s-1.5,11.9-4.4,15.7c-2.9,3.8-7.1,6.2-12.4,7.1l16,27.7h-17.7l-14.9-27.2h-32.1v27.2h-15.6ZM423.3,49.7h-40.8v19.8h40.8c2.9.1,5-.7,6.6-2.2,1.5-1.5,2.3-4.1,2.3-7.7s-.8-6.2-2.3-7.7c-1.5-1.5-3.7-2.2-6.6-2.2Z"/>
        <path class="cls-1" d="M458.4,110.2V36.3h15.6v74h-15.6Z"/>
        <path class="cls-1" d="M486.4,110.2V36.3h15.8l49.2,53.2v-53.2h15.6v74h-15.8l-49.2-53.3v53.3h-15.6Z"/>
      </g>
    </g>
  </g>
</svg>